<svg width="24" height="24" viewBox="0 0 24 24" fill="none" xmlns="http://www.w3.org/2000/svg">
<path d="M19 6.50002H17.72L17.4 5.50002C17.1926 4.91325 16.8077 4.40553 16.2989 4.04718C15.7901 3.68884 15.1824 3.49762 14.56 3.50002H9.44C8.81155 3.5012 8.19933 3.69971 7.68977 4.06753C7.1802 4.43535 6.79901 4.95391 6.6 5.55002L6.28 6.55002H5C4.20435 6.55002 3.44129 6.86609 2.87868 7.4287C2.31607 7.99131 2 8.75437 2 9.55002V17.55C2 18.3457 2.31607 19.1087 2.87868 19.6713C3.44129 20.234 4.20435 20.55 5 20.55H19C19.7956 20.55 20.5587 20.234 21.1213 19.6713C21.6839 19.1087 22 18.3457 22 17.55V9.55002C22.0066 9.15187 21.9339 8.75638 21.7862 8.38661C21.6384 8.01684 21.4184 7.6802 21.1392 7.39631C20.86 7.11241 20.527 6.88695 20.1597 6.73307C19.7924 6.57919 19.3982 6.49997 19 6.50002ZM20 17.5C20 17.7652 19.8946 18.0196 19.7071 18.2071C19.5196 18.3947 19.2652 18.5 19 18.5H5C4.73478 18.5 4.48043 18.3947 4.29289 18.2071C4.10536 18.0196 4 17.7652 4 17.5V9.50002C4 9.23481 4.10536 8.98045 4.29289 8.79292C4.48043 8.60538 4.73478 8.50002 5 8.50002H7C7.21807 8.5114 7.43386 8.4511 7.61443 8.32831C7.795 8.20552 7.93042 8.027 8 7.82002L8.54 6.18002C8.60709 5.9814 8.7349 5.80889 8.90537 5.68686C9.07584 5.56484 9.28036 5.49948 9.49 5.50002H14.61C14.8196 5.49948 15.0242 5.56484 15.1946 5.68686C15.3651 5.80889 15.4929 5.9814 15.56 6.18002L16.1 7.82002C16.1642 8.01077 16.2844 8.17771 16.445 8.29903C16.6055 8.42035 16.799 8.4904 17 8.50002H19C19.2652 8.50002 19.5196 8.60538 19.7071 8.79292C19.8946 8.98045 20 9.23481 20 9.50002V17.5Z" fill="black"/>
<path d="M11.5128 9.35262C11.6675 8.88249 12.3325 8.88249 12.4872 9.35262L13.1882 11.4845C13.2394 11.6392 13.3608 11.7606 13.5155 11.8119L15.6474 12.5128C16.1175 12.6675 16.1175 13.3325 15.6474 13.4873L13.5155 14.1882C13.3608 14.2395 13.2394 14.3609 13.1882 14.5156L12.4872 16.6474C12.3325 17.1176 11.6675 17.1176 11.5128 16.6474L10.8118 14.5156C10.7606 14.3609 10.6392 14.2395 10.4845 14.1882L8.3526 13.4873C7.88247 13.3325 7.88247 12.6675 8.3526 12.5128L10.4845 11.8119C10.6392 11.7606 10.7606 11.6392 10.8118 11.4845L11.5128 9.35262Z" fill="black"/>
</svg>
