<svg width="24" height="24" viewBox="0 0 24 24" fill="none" xmlns="http://www.w3.org/2000/svg">
<path d="M3.25 4.5C3.94036 4.5 4.5 3.94036 4.5 3.25C4.5 2.55964 3.94036 2 3.25 2C2.55964 2 2 2.55964 2 3.25C2 3.94036 2.55964 4.5 3.25 4.5Z" fill="black"/>
<path d="M6.75 4.5C7.44036 4.5 8 3.94036 8 3.25C8 2.55964 7.44036 2 6.75 2C6.05964 2 5.5 2.55964 5.5 3.25C5.5 3.94036 6.05964 4.5 6.75 4.5Z" fill="black"/>
<path d="M8 20.75C8 21.4404 7.44036 22 6.75 22C6.05964 22 5.5 21.4404 5.5 20.75C5.5 20.0596 6.05964 19.5 6.75 19.5C7.44036 19.5 8 20.0596 8 20.75Z" fill="black"/>
<path d="M10.25 4.5C10.9404 4.5 11.5 3.94036 11.5 3.25C11.5 2.55964 10.9404 2 10.25 2C9.55964 2 9 2.55964 9 3.25C9 3.94036 9.55964 4.5 10.25 4.5Z" fill="black"/>
<path d="M11.5 20.75C11.5 21.4404 10.9404 22 10.25 22C9.55964 22 9 21.4404 9 20.75C9 20.0596 9.55964 19.5 10.25 19.5C10.9404 19.5 11.5 20.0596 11.5 20.75Z" fill="black"/>
<path d="M13.75 4.5C14.4404 4.5 15 3.94036 15 3.25C15 2.55964 14.4404 2 13.75 2C13.0596 2 12.5 2.55964 12.5 3.25C12.5 3.94036 13.0596 4.5 13.75 4.5Z" fill="black"/>
<path d="M15 20.75C15 21.4404 14.4404 22 13.75 22C13.0596 22 12.5 21.4404 12.5 20.75C12.5 20.0596 13.0596 19.5 13.75 19.5C14.4404 19.5 15 20.0596 15 20.75Z" fill="black"/>
<path d="M17.25 4.5C17.9404 4.5 18.5 3.94036 18.5 3.25C18.5 2.55964 17.9404 2 17.25 2C16.5596 2 16 2.55964 16 3.25C16 3.94036 16.5596 4.5 17.25 4.5Z" fill="black"/>
<path d="M18.5 20.75C18.5 21.4404 17.9404 22 17.25 22C16.5596 22 16 21.4404 16 20.75C16 20.0596 16.5596 19.5 17.25 19.5C17.9404 19.5 18.5 20.0596 18.5 20.75Z" fill="black"/>
<path d="M20.75 4.5C21.4404 4.5 22 3.94036 22 3.25C22 2.55964 21.4404 2 20.75 2C20.0596 2 19.5 2.55964 19.5 3.25C19.5 3.94036 20.0596 4.5 20.75 4.5Z" fill="black"/>
<path d="M4.5 6.75C4.5 7.44036 3.94036 8 3.25 8C2.55964 8 2 7.44036 2 6.75C2 6.05964 2.55964 5.5 3.25 5.5C3.94036 5.5 4.5 6.05964 4.5 6.75Z" fill="black"/>
<path d="M20.75 8C21.4404 8 22 7.44036 22 6.75C22 6.05964 21.4404 5.5 20.75 5.5C20.0596 5.5 19.5 6.05964 19.5 6.75C19.5 7.44036 20.0596 8 20.75 8Z" fill="black"/>
<path d="M4.5 10.25C4.5 10.9404 3.94036 11.5 3.25 11.5C2.55964 11.5 2 10.9404 2 10.25C2 9.55964 2.55964 9 3.25 9C3.94036 9 4.5 9.55964 4.5 10.25Z" fill="black"/>
<path d="M20.75 11.5C21.4404 11.5 22 10.9404 22 10.25C22 9.55964 21.4404 9 20.75 9C20.0596 9 19.5 9.55964 19.5 10.25C19.5 10.9404 20.0596 11.5 20.75 11.5Z" fill="black"/>
<path d="M4.5 13.75C4.5 14.4404 3.94036 15 3.25 15C2.55964 15 2 14.4404 2 13.75C2 13.0596 2.55964 12.5 3.25 12.5C3.94036 12.5 4.5 13.0596 4.5 13.75Z" fill="black"/>
<path d="M20.75 15C21.4404 15 22 14.4404 22 13.75C22 13.0596 21.4404 12.5 20.75 12.5C20.0596 12.5 19.5 13.0596 19.5 13.75C19.5 14.4404 20.0596 15 20.75 15Z" fill="black"/>
<path d="M4.5 17.25C4.5 17.9404 3.94036 18.5 3.25 18.5C2.55964 18.5 2 17.9404 2 17.25C2 16.5596 2.55964 16 3.25 16C3.94036 16 4.5 16.5596 4.5 17.25Z" fill="black"/>
<path d="M20.75 18.5C21.4404 18.5 22 17.9404 22 17.25C22 16.5596 21.4404 16 20.75 16C20.0596 16 19.5 16.5596 19.5 17.25C19.5 17.9404 20.0596 18.5 20.75 18.5Z" fill="black"/>
<path d="M4.5 20.75C4.5 21.4404 3.94036 22 3.25 22C2.55964 22 2 21.4404 2 20.75C2 20.0596 2.55964 19.5 3.25 19.5C3.94036 19.5 4.5 20.0596 4.5 20.75Z" fill="black"/>
<path d="M20.75 22C21.4404 22 22 21.4404 22 20.75C22 20.0596 21.4404 19.5 20.75 19.5C20.0596 19.5 19.5 20.0596 19.5 20.75C19.5 21.4404 20.0596 22 20.75 22Z" fill="black"/>
<path fill-rule="evenodd" clip-rule="evenodd" d="M19 12C19 15.866 15.866 19 12 19C8.13401 19 5 15.866 5 12C5 8.13401 8.13401 5 12 5C15.866 5 19 8.13401 19 12ZM17 12C17 14.7614 14.7614 17 12 17C9.23858 17 7 14.7614 7 12C7 9.23858 9.23858 7 12 7C14.7614 7 17 9.23858 17 12Z" fill="black"/>
</svg>
